<svg width="98" height="80" viewBox="0 0 98 80" fill="none" xmlns="http://www.w3.org/2000/svg">
<path d="M78.0517 29.5062H67.7749C67.7749 10.5168 49.3919 10.2989 48.6089 10.2989C29.6603 10.2989 29.4428 28.7215 29.4428 29.5062H19.166C19.166 10.5168 0.783045 10.2989 0 10.2989V0C7.87994 0 18.3158 3.48257 24.414 12.1978C28.9461 5.37974 36.6794 0 48.6089 0C56.4888 0 66.9247 3.48257 73.0229 12.1978C77.555 5.38151 85.2883 0 97.2178 0V10.2989C78.2691 10.2989 78.0517 28.7215 78.0517 29.5062Z" fill="#0047CC"/>
<path d="M23.5052 62.416V52.9089C23.5052 50.0073 22.1537 46.6119 18.1872 46.6119C16.0129 46.6119 14.4851 47.6306 13.5155 49.2357C12.6928 47.5688 11.2237 46.6119 9.10827 46.6119C6.90466 46.6119 5.4062 47.8775 4.73042 49.1739H4.67166V47.0441H0V62.416H4.84795V54.0818C4.84795 52.2298 5.72939 50.779 7.25723 50.779C8.69693 50.779 9.34332 51.8902 9.34332 53.6497V62.416H14.1619V54.1127C14.1619 52.3841 14.9552 50.779 16.6006 50.779C18.3047 50.779 18.6866 52.2606 18.6866 54.0201V62.416H23.5052Z" fill="#0047CC"/>
<path d="M36.9863 53.9892L42.6275 47.0441H36.7806L32.1089 53.2793H32.0208V39.0804H27.1728V62.416H32.0208V55.0387H32.1089L36.8981 62.416H42.8626L36.9863 53.9892Z" fill="#0047CC"/>
<path d="M59.3562 54.6683C59.3562 49.6369 55.6541 46.5502 51.2175 46.5502C46.8103 46.5502 43.1082 49.6369 43.1082 54.6683C43.1082 59.6996 46.8103 62.9098 51.2175 62.9098C55.6541 62.9098 59.3562 59.6996 59.3562 54.6683ZM54.7139 54.6683C54.7139 56.6438 53.5092 58.6502 51.2469 58.6502C48.9845 58.6502 47.7798 56.6438 47.7798 54.6683C47.7798 52.6928 48.9551 50.7482 51.2175 50.7482C53.4799 50.7482 54.7139 52.6928 54.7139 54.6683Z" fill="#0047CC"/>
<path d="M78.7138 54.6683C78.7138 50.3778 76.0694 46.6119 71.8091 46.6119C69.6642 46.6119 68.1658 47.6614 67.3431 48.6801H67.2843V39.0804H62.4658V62.416H66.9024V60.4096H66.9611C67.9014 61.953 69.8112 62.8481 71.7503 62.8481C76.1576 62.8481 78.7138 58.9588 78.7138 54.6683ZM74.0715 54.6683C74.0715 56.6747 72.8962 58.6502 70.6045 58.6502C68.4302 58.6502 67.0787 56.7055 67.0787 54.6992C67.0787 52.7545 68.4302 50.7482 70.6045 50.7482C72.8962 50.7482 74.0715 52.6928 74.0715 54.6683Z" fill="#0047CC"/>
<path d="M97.2881 54.6683C97.2881 49.6369 93.5861 46.5502 89.1495 46.5502C84.7422 46.5502 81.0402 49.6369 81.0402 54.6683C81.0402 59.6996 84.7422 62.9098 89.1495 62.9098C93.5861 62.9098 97.2881 59.6996 97.2881 54.6683ZM92.6459 54.6683C92.6459 56.6438 91.4412 58.6502 89.1788 58.6502C86.9165 58.6502 85.7118 56.6438 85.7118 54.6683C85.7118 52.6928 86.8871 50.7482 89.1495 50.7482C91.4118 50.7482 92.6459 52.6928 92.6459 54.6683Z" fill="#0047CC"/>
<path d="M1.19455 79.0297H0V71.4789H0.660146L3.90848 76.1074L7.13586 71.4789H7.81696V79.0297H6.60146V74.1968L4.07614 77.7933H3.71987L1.19455 74.1968V79.0297Z" fill="#0047CC"/>
<path d="M10.089 72.797C9.86545 72.797 9.67684 72.7254 9.52316 72.5824C9.36947 72.4325 9.29263 72.2486 9.29263 72.0306C9.29263 71.8195 9.36947 71.6424 9.52316 71.4993C9.67684 71.3563 9.86545 71.2848 10.089 71.2848C10.3056 71.2848 10.4872 71.3563 10.6339 71.4993C10.7806 71.6424 10.8539 71.8195 10.8539 72.0306C10.8539 72.2486 10.7806 72.4325 10.6339 72.5824C10.4872 72.7254 10.3056 72.797 10.089 72.797ZM10.6444 73.5224V79.0297H9.49172V73.5224H10.6444Z" fill="#0047CC"/>
<path d="M14.7826 79.1523C13.9024 79.1523 13.1864 78.8832 12.6345 78.3451C12.0757 77.8002 11.7963 77.1122 11.7963 76.2811C11.7963 75.4433 12.0792 74.7519 12.645 74.207C13.2178 73.662 13.9443 73.3896 14.8245 73.3896C15.3904 73.3896 15.9073 73.5224 16.3754 73.7881C16.8504 74.0537 17.1997 74.4113 17.4232 74.8609L16.4697 75.382C16.295 75.0891 16.061 74.8575 15.7676 74.6872C15.4812 74.5101 15.1703 74.4216 14.835 74.4216C14.2971 74.4216 13.85 74.5986 13.4938 74.9529C13.1375 75.3139 12.9594 75.7566 12.9594 76.2811C12.9594 76.792 13.134 77.228 13.4833 77.589C13.8256 77.9432 14.2622 78.1203 14.7931 78.1203C15.1284 78.1203 15.4498 78.0317 15.7571 77.8546C16.0645 77.6775 16.2915 77.4528 16.4382 77.1803L17.3918 77.7218C17.1612 78.151 16.8085 78.4983 16.3334 78.764C15.8654 79.0228 15.3485 79.1523 14.7826 79.1523Z" fill="#0047CC"/>
<path d="M19.5672 79.0297H18.4146V73.5224H19.5148V74.3092C19.8501 73.6893 20.3845 73.3794 21.118 73.3794C21.3555 73.3794 21.5791 73.41 21.7887 73.4713L21.6839 74.5646C21.4953 74.4965 21.2892 74.4624 21.0656 74.4624C20.6116 74.4624 20.2483 74.6123 19.9759 74.912C19.7034 75.2117 19.5672 75.6442 19.5672 76.2096V79.0297Z" fill="#0047CC"/>
<path d="M22.0189 76.2709C22.0189 75.474 22.2984 74.7928 22.8572 74.2274C23.4231 73.662 24.1391 73.3794 25.0053 73.3794C25.8715 73.3794 26.5841 73.662 27.1429 74.2274C27.7088 74.786 27.9917 75.4671 27.9917 76.2709C27.9917 77.0883 27.7088 77.7763 27.1429 78.3349C26.5911 78.8934 25.8785 79.1727 25.0053 79.1727C24.1391 79.1727 23.4231 78.8934 22.8572 78.3349C22.2984 77.7695 22.0189 77.0815 22.0189 76.2709ZM26.8286 76.2709C26.8286 75.7669 26.6504 75.3343 26.2942 74.9733C25.9519 74.6055 25.5222 74.4216 25.0053 74.4216C24.4954 74.4216 24.0622 74.6055 23.706 74.9733C23.3567 75.3343 23.182 75.7669 23.182 76.2709C23.182 76.7818 23.3567 77.2178 23.706 77.5788C24.0622 77.9398 24.4954 78.1203 25.0053 78.1203C25.5153 78.1203 25.9449 77.9398 26.2942 77.5788C26.6504 77.2178 26.8286 76.7818 26.8286 76.2709Z" fill="#0047CC"/>
<path d="M29.4979 73.5224V73.2465C29.4979 72.579 29.676 72.0579 30.0323 71.6832C30.3955 71.3086 30.881 71.1213 31.4888 71.1213C31.9778 71.1213 32.4284 71.2303 32.8405 71.4482L32.4843 72.3474C32.1489 72.2111 31.8695 72.143 31.646 72.143C31.3246 72.143 31.0766 72.235 30.902 72.4189C30.7343 72.6028 30.6505 72.8719 30.6505 73.2261V73.5224H32.4423V74.4829H30.6505V79.0297H29.4979V74.4829H28.5548V73.5224H29.4979ZM33.1654 72.0306C33.1654 71.8195 33.2387 71.6424 33.3854 71.4993C33.5391 71.3495 33.7277 71.2745 33.9512 71.2745C34.1748 71.2745 34.3599 71.3495 34.5066 71.4993C34.6533 71.6424 34.7267 71.8195 34.7267 72.0306C34.7267 72.2486 34.6533 72.4325 34.5066 72.5824C34.3599 72.7254 34.1748 72.797 33.9512 72.797C33.7277 72.797 33.5391 72.7254 33.3854 72.5824C33.2387 72.4325 33.1654 72.2486 33.1654 72.0306ZM34.5171 79.0297H33.3644V73.5224H34.5171V79.0297Z" fill="#0047CC"/>
<path d="M37.1576 79.0297H36.0049V73.5224H37.1366V74.2989C37.3043 74.0128 37.5453 73.7881 37.8596 73.6246C38.174 73.4611 38.5303 73.3794 38.9285 73.3794C39.5502 73.3794 40.0741 73.5769 40.5002 73.972C40.9333 74.3739 41.1499 74.9426 41.1499 75.6783V79.0297H39.9868V75.9951C39.9868 75.4978 39.8645 75.1129 39.62 74.8405C39.3755 74.5612 39.0472 74.4216 38.6351 74.4216C38.2019 74.4216 37.8457 74.5714 37.5662 74.8711C37.2938 75.164 37.1576 75.5455 37.1576 76.0155V79.0297Z" fill="#0047CC"/>
<path d="M46.9757 74.2887V73.5224H48.0864V79.0297H46.9757V78.2736C46.4657 78.8662 45.8231 79.1625 45.0477 79.1625C44.2303 79.1625 43.5562 78.8832 43.0253 78.3246C42.4944 77.7661 42.2289 77.0713 42.2289 76.2403C42.2289 75.4161 42.4944 74.7349 43.0253 74.1968C43.5562 73.6586 44.2303 73.3896 45.0477 73.3896C45.8231 73.3896 46.4657 73.6893 46.9757 74.2887ZM45.2048 78.1305C45.7288 78.1305 46.1654 77.95 46.5146 77.589C46.8569 77.2348 47.0281 76.7954 47.0281 76.2709C47.0281 75.7532 46.8569 75.3173 46.5146 74.9631C46.1654 74.6021 45.7288 74.4216 45.2048 74.4216C44.6669 74.4216 44.2303 74.6021 43.895 74.9631C43.5597 75.3173 43.392 75.7566 43.392 76.2811C43.392 76.8056 43.5597 77.245 43.895 77.5992C44.2303 77.9534 44.6669 78.1305 45.2048 78.1305Z" fill="#0047CC"/>
<path d="M50.7264 79.0297H49.5738V73.5224H50.7055V74.2989C50.8731 74.0128 51.1141 73.7881 51.4285 73.6246C51.7428 73.4611 52.0991 73.3794 52.4973 73.3794C53.119 73.3794 53.6429 73.5769 54.0691 73.972C54.5022 74.3739 54.7187 74.9426 54.7187 75.6783V79.0297H53.5556V75.9951C53.5556 75.4978 53.4334 75.1129 53.1889 74.8405C52.9444 74.5612 52.6161 74.4216 52.2039 74.4216C51.7708 74.4216 51.4145 74.5714 51.1351 74.8711C50.8626 75.164 50.7264 75.5455 50.7264 76.0155V79.0297Z" fill="#0047CC"/>
<path d="M58.7842 79.1523C57.904 79.1523 57.1879 78.8832 56.6361 78.3451C56.0772 77.8002 55.7978 77.1122 55.7978 76.2811C55.7978 75.4433 56.0807 74.7519 56.6465 74.207C57.2194 73.662 57.9459 73.3896 58.8261 73.3896C59.3919 73.3896 59.9088 73.5224 60.3769 73.7881C60.8519 74.0537 61.2012 74.4113 61.4247 74.8609L60.4712 75.382C60.2966 75.0891 60.0625 74.8575 59.7691 74.6872C59.4827 74.5101 59.1719 74.4216 58.8365 74.4216C58.2986 74.4216 57.8516 74.5986 57.4953 74.9529C57.139 75.3139 56.9609 75.7566 56.9609 76.2811C56.9609 76.792 57.1355 77.228 57.4848 77.589C57.8271 77.9432 58.2637 78.1203 58.7946 78.1203C59.1299 78.1203 59.4513 78.0317 59.7587 77.8546C60.066 77.6775 60.2931 77.4528 60.4398 77.1803L61.3933 77.7218C61.1628 78.151 60.81 78.4983 60.335 78.764C59.8669 79.0228 59.35 79.1523 58.7842 79.1523Z" fill="#0047CC"/>
<path d="M67.7289 76.1688C67.7289 76.3459 67.715 76.5264 67.687 76.7103H63.2756C63.3594 77.153 63.5585 77.5038 63.8729 77.7627C64.1942 78.0215 64.6203 78.1509 65.1512 78.1509C65.4726 78.1509 65.8079 78.0965 66.1572 77.9875C66.5134 77.8785 66.8173 77.7354 67.0688 77.5583L67.5508 78.386C66.8453 78.8968 66.0314 79.1523 65.1093 79.1523C64.1174 79.1523 63.3629 78.8696 62.846 78.3042C62.336 77.7388 62.081 77.0577 62.081 76.2607C62.081 75.4297 62.3465 74.7451 62.8774 74.207C63.4153 73.662 64.1104 73.3896 64.9626 73.3896C65.7799 73.3896 66.4436 73.6382 66.9535 74.1355C67.4705 74.6395 67.7289 75.3173 67.7289 76.1688ZM64.9626 74.3602C64.5295 74.3602 64.1593 74.4931 63.8519 74.7587C63.5515 75.0176 63.3594 75.3616 63.2756 75.7907H66.5658C66.5169 75.3616 66.3423 75.0176 66.0419 74.7587C65.7485 74.4931 65.3887 74.3602 64.9626 74.3602Z" fill="#0047CC"/>
<path d="M75.9051 74.9018C76.3662 75.0244 76.7259 75.2628 76.9844 75.617C77.2429 75.9712 77.3721 76.3833 77.3721 76.8533C77.3721 77.4391 77.1556 77.95 76.7224 78.386C76.2893 78.8151 75.699 79.0297 74.9516 79.0297H71.6509V71.4789H74.8049C75.4825 71.4789 76.0099 71.6662 76.3871 72.0409C76.7713 72.4155 76.9635 72.8549 76.9635 73.3589C76.9635 73.6995 76.8657 74.0128 76.6701 74.2989C76.4814 74.585 76.2265 74.786 75.9051 74.9018ZM74.6267 72.5517H72.8454V74.5033H74.5848C74.9341 74.5033 75.2135 74.4045 75.4231 74.207C75.6327 74.0094 75.7375 73.771 75.7375 73.4918C75.7375 73.2261 75.6362 73.0047 75.4336 72.8276C75.231 72.6437 74.9621 72.5517 74.6267 72.5517ZM72.8454 77.9568H74.742C75.1542 77.9568 75.486 77.841 75.7375 77.6094C75.989 77.3778 76.1147 77.0951 76.1147 76.7614C76.1147 76.414 75.989 76.1245 75.7375 75.8929C75.493 75.6613 75.1507 75.5455 74.7106 75.5455H72.8454V77.9568Z" fill="#0047CC"/>
<path d="M82.9649 74.2887V73.5224H84.0756V79.0297H82.9649V78.2736C82.4549 78.8662 81.8122 79.1625 81.0368 79.1625C80.2195 79.1625 79.5454 78.8832 79.0145 78.3246C78.4835 77.7661 78.2181 77.0713 78.2181 76.2403C78.2181 75.4161 78.4835 74.7349 79.0145 74.1968C79.5454 73.6586 80.2195 73.3896 81.0368 73.3896C81.8122 73.3896 82.4549 73.6893 82.9649 74.2887ZM81.194 78.1305C81.7179 78.1305 82.1545 77.95 82.5038 77.589C82.8461 77.2348 83.0172 76.7954 83.0172 76.2709C83.0172 75.7532 82.8461 75.3173 82.5038 74.9631C82.1545 74.6021 81.7179 74.4216 81.194 74.4216C80.6561 74.4216 80.2195 74.6021 79.8842 74.9631C79.5489 75.3173 79.3812 75.7566 79.3812 76.2811C79.3812 76.8056 79.5489 77.245 79.8842 77.5992C80.2195 77.9534 80.6561 78.1305 81.194 78.1305Z" fill="#0047CC"/>
<path d="M86.7156 79.0297H85.5629V73.5224H86.6946V74.2989C86.8623 74.0128 87.1033 73.7881 87.4176 73.6246C87.732 73.4611 88.0883 73.3794 88.4865 73.3794C89.1082 73.3794 89.6321 73.5769 90.0582 73.972C90.4913 74.3739 90.7079 74.9426 90.7079 75.6783V79.0297H89.5448V75.9951C89.5448 75.4978 89.4225 75.1129 89.178 74.8405C88.9335 74.5612 88.6052 74.4216 88.1931 74.4216C87.7599 74.4216 87.4037 74.5714 87.1242 74.8711C86.8518 75.164 86.7156 75.5455 86.7156 76.0155V79.0297Z" fill="#0047CC"/>
<path d="M97.2881 79.0297H95.8002L93.7674 76.5264L93.2749 76.9657V79.0297H92.1222V71.2848H93.2749V75.6476L95.6535 73.5224H97.1729L94.5742 75.8111L97.2881 79.0297Z" fill="#0047CC"/>
</svg>
