<svg width="20" height="20" viewBox="0 0 20 20" fill="none" xmlns="http://www.w3.org/2000/svg">
<path d="M15.7918 10.8112L13.2144 13.3505L11.0662 11.5453C10.7325 11.2652 10.3108 11.1115 9.87513 11.1112H5.85775C5.78142 10.8953 5.64025 10.7083 5.45356 10.5757C5.26687 10.4431 5.04377 10.3714 4.81479 10.3705H1.1111C0.816422 10.3705 0.533808 10.4876 0.325435 10.6959C0.117063 10.9043 0 11.1869 0 11.4816V18.889C0 19.1837 0.117063 19.4663 0.325435 19.6746C0.533808 19.883 0.816422 20.0001 1.1111 20.0001H4.81479C5.04099 19.999 5.26148 19.929 5.44679 19.7992C5.6321 19.6695 5.77341 19.4863 5.85182 19.2742L12.2592 19.579C12.301 19.5808 12.3429 19.5819 12.3844 19.5819C12.7488 19.5823 13.1092 19.5056 13.4418 19.3567C13.7745 19.2078 14.0718 18.9903 14.3144 18.7182L18.8147 13.6909C19.1772 13.2868 19.3681 12.7575 19.3469 12.2151C19.3257 11.6727 19.0941 11.1599 18.7011 10.7854C18.3082 10.4109 17.7849 10.2042 17.2421 10.209C16.6994 10.2138 16.1798 10.4298 15.7936 10.8112H15.7918ZM4.81479 19.2593H1.1111C1.01288 19.2593 0.918673 19.2203 0.849215 19.1509C0.779758 19.0814 0.740737 18.9872 0.740737 18.889V11.4816C0.740737 11.3834 0.779758 11.2892 0.849215 11.2197C0.918673 11.1503 1.01288 11.1112 1.1111 11.1112H4.81479C4.91302 11.1112 5.00722 11.1503 5.07668 11.2197C5.14614 11.2892 5.18516 11.3834 5.18516 11.4816V18.889C5.18516 18.9872 5.14614 19.0814 5.07668 19.1509C5.00722 19.2203 4.91302 19.2593 4.81479 19.2593ZM18.261 13.1968L13.7625 18.2242C13.5794 18.4299 13.3524 18.592 13.0983 18.6984C12.8442 18.8048 12.5695 18.8529 12.2944 18.839L5.92589 18.536V11.852H9.87513C10.1363 11.8517 10.3893 11.9435 10.5896 12.1112L12.9466 14.092C13.0963 14.2183 13.1899 14.3988 13.2068 14.594C13.2238 14.7892 13.1627 14.9832 13.037 15.1334C12.9106 15.2833 12.73 15.3769 12.5347 15.3939C12.3394 15.4108 12.1454 15.3497 11.9951 15.2238L11.1714 14.5312C11.1342 14.4999 11.0911 14.4762 11.0447 14.4615C10.9983 14.4469 10.9494 14.4415 10.901 14.4457C10.8525 14.4498 10.8053 14.4636 10.7621 14.486C10.7189 14.5084 10.6805 14.5391 10.6492 14.5764C10.5859 14.6516 10.5552 14.7489 10.5636 14.8469C10.5721 14.9448 10.6191 15.0354 10.6944 15.0986L11.5185 15.7912C11.8192 16.0435 12.2079 16.1661 12.599 16.1321C12.9901 16.0981 13.3517 15.9102 13.6044 15.6097C13.804 15.3714 13.9236 15.0763 13.9462 14.7662C13.9688 14.4561 13.8933 14.1467 13.7303 13.882L16.3114 11.3386C16.5604 11.0917 16.8959 10.9516 17.2466 10.9481C17.5973 10.9446 17.9355 11.0781 18.1894 11.32C18.4432 11.562 18.5927 11.8935 18.606 12.2439C18.6193 12.5944 18.4954 12.9362 18.2606 13.1968H18.261Z" fill="currentColor"/>
<path d="M11.3057 7.77813V6.88125H11.1111V6.61255H11.3057V6.35112H11.1111V6.08242H11.3057V5.18555H11.8324L12.0941 6.08242H12.3994V5.18555H12.7718V6.08242H12.963V6.35112H12.7718V6.61255H12.963V6.88125H12.7718V7.77813H12.2417L11.9733 6.88125H11.6781V7.77813H11.3057ZM11.6647 6.08242H11.7586L11.6613 5.73384H11.6479L11.6647 6.08242ZM11.6781 6.61255H11.8995L11.8257 6.35112H11.6714L11.6781 6.61255ZM12.2518 6.61255H12.4061L12.3994 6.35112H12.1746L12.2518 6.61255ZM12.4094 7.21168H12.4262L12.4128 6.88125H12.3222L12.4094 7.21168Z" fill="currentColor"/>
<path d="M8.25621 9.57425C8.83695 10.3924 10.4603 10.7409 11.9258 10.7409C12.0395 10.7409 12.1532 10.7387 12.2643 10.7342C13.0166 10.7061 14.8295 10.5346 15.4225 9.55092C16.7795 7.29649 14.8991 4.5528 13.8888 3.33355H14.4443C14.5426 3.33355 14.6368 3.29453 14.7062 3.22507C14.7757 3.15561 14.8147 3.06141 14.8147 2.96318C14.8147 2.86495 14.7757 2.77075 14.7062 2.70129C14.6368 2.63183 14.5426 2.59281 14.4443 2.59281H14.1506C14.3643 2.42198 14.5355 2.20395 14.6507 1.95584C14.7659 1.70773 14.822 1.43628 14.8147 1.16282C14.8166 0.955553 14.7633 0.751509 14.6604 0.571616C14.5574 0.391723 14.4085 0.242454 14.2288 0.139121C14.0627 0.0445409 13.8742 -0.00345678 13.6831 0.00019374C13.4921 0.00384426 13.3055 0.0590077 13.1432 0.159862L12.3936 0.616896C12.2311 0.718382 12.0433 0.772189 11.8517 0.772189C11.6602 0.772189 11.4724 0.718382 11.3099 0.616896L10.5603 0.159862C10.398 0.0590077 10.2114 0.00384426 10.0203 0.00019374C9.82928 -0.00345678 9.64078 0.0445409 9.47472 0.139121C9.29504 0.242454 9.14608 0.391723 9.04312 0.571616C8.94015 0.751509 8.88689 0.955553 8.8888 1.16282C8.88145 1.43628 8.9376 1.70773 9.05282 1.95584C9.16804 2.20395 9.3392 2.42198 9.55287 2.59281H8.51843C8.4202 2.59281 8.326 2.63183 8.25654 2.70129C8.18708 2.77075 8.14806 2.86495 8.14806 2.96318C8.14806 3.06141 8.18708 3.15561 8.25654 3.22507C8.326 3.29453 8.4202 3.33355 8.51843 3.33355H9.81917C8.82473 4.61724 6.85548 7.60056 8.25621 9.57425ZM9.83731 0.785043C9.88864 0.754901 9.94732 0.7396 10.0068 0.740842C10.0663 0.742084 10.1243 0.759823 10.1743 0.79208L10.924 1.24911C11.2031 1.42039 11.5242 1.51105 11.8517 1.51105C12.1793 1.51105 12.5004 1.42039 12.7795 1.24911L13.5291 0.79208C13.5792 0.759983 13.6372 0.74234 13.6967 0.741099C13.7561 0.739857 13.8148 0.755064 13.8662 0.785043C13.9316 0.823476 13.9855 0.878861 14.022 0.945353C14.0586 1.01185 14.0765 1.08698 14.074 1.16282C14.074 1.85911 13.6262 2.15467 12.6769 2.59281H11.0266C10.0773 2.15467 9.62954 1.85911 9.62954 1.16282C9.62695 1.08698 9.64489 1.01185 9.68146 0.945353C9.71803 0.878861 9.77188 0.823476 9.83731 0.785043ZM10.7732 3.33355H12.8995C13.4651 3.9428 16.1076 6.9776 14.7865 9.16833C14.5173 9.61536 13.4921 9.9461 12.2354 9.99425C10.6936 10.0528 9.24472 9.68684 8.86028 9.145C7.56029 7.3139 10.2014 4.01021 10.7732 3.33355Z" fill="currentColor"/>
</svg>
