<svg width="18" height="18" viewBox="0 0 18 18" fill="none" xmlns="http://www.w3.org/2000/svg">
<circle cx="9" cy="9" r="8.25" stroke="currentColor" stroke-width="1.5"/>
<path d="M9.32773 10.4637H8.27731V9.95159C8.27731 9.55414 8.46219 9.20255 8.83193 8.89682C8.87115 8.86115 8.95798 8.78981 9.09244 8.6828C9.23249 8.5758 9.33053 8.49682 9.38655 8.44586C9.44818 8.3949 9.52101 8.32357 9.60504 8.23185C9.69468 8.13503 9.7563 8.04331 9.78992 7.95669C9.82913 7.87006 9.84874 7.77834 9.84874 7.68153C9.84874 7.46752 9.7619 7.29172 9.58824 7.15414C9.41457 7.01147 9.19888 6.94013 8.94118 6.94013C8.52101 6.94013 8.10084 7.15669 7.68067 7.58981L7 6.90191C7.54342 6.30064 8.21849 6 9.02521 6C9.59104 6 10.0616 6.15541 10.437 6.46624C10.8123 6.77197 11 7.15924 11 7.62803C11 8.07134 10.8011 8.45605 10.4034 8.78217C10.3529 8.82803 10.2353 8.92229 10.0504 9.06497C9.87115 9.20764 9.7451 9.3121 9.67227 9.37834C9.59944 9.44459 9.52381 9.53885 9.44538 9.66115C9.36695 9.77834 9.32773 9.89045 9.32773 9.99745V10.4637ZM8.81513 12C8.63025 12 8.47339 11.9439 8.34454 11.8318C8.21569 11.7197 8.15126 11.5796 8.15126 11.4115C8.15126 11.2433 8.21569 11.1032 8.34454 10.9911C8.47339 10.879 8.63025 10.8229 8.81513 10.8229C8.9944 10.8229 9.14566 10.879 9.26891 10.9911C9.39776 11.1032 9.46218 11.2433 9.46218 11.4115C9.46218 11.5796 9.39776 11.7197 9.26891 11.8318C9.14566 11.9439 8.9944 12 8.81513 12Z" fill="currentColor"/>
</svg>
