<svg width="19" height="19" viewBox="0 0 19 19" fill="none" xmlns="http://www.w3.org/2000/svg">
<g clip-path="url(#clip0_1_387)">
<path d="M12.2142 11.5356C11.8394 11.5356 11.5356 11.8394 11.5356 12.2141C11.5356 13.3384 10.6242 14.2499 9.49988 14.2499C8.37558 14.2499 7.46416 13.3384 7.46416 12.2141C7.46416 11.8394 7.16036 11.5356 6.78558 11.5356C6.4108 11.5356 6.10699 11.8394 6.10699 12.2141C6.10699 14.0879 7.62603 15.607 9.49984 15.607C11.3736 15.607 12.8927 14.0879 12.8927 12.2141C12.8928 11.8394 12.589 11.5356 12.2142 11.5356Z" fill="currentColor"/>
<path d="M12.6942 2.9131L9.97986 0.198843C9.71486 -0.0660777 9.28533 -0.0660777 9.02037 0.198843L6.30607 2.91314C6.04573 3.18271 6.0532 3.61228 6.32277 3.87263C6.58575 4.12662 7.00263 4.12662 7.2656 3.87263L8.82157 2.31666V11.5357C8.82157 11.9105 9.12538 12.2143 9.50016 12.2143C9.87493 12.2143 10.1787 11.9105 10.1787 11.5357V2.31666L11.7347 3.87263C11.8619 3.9999 12.0345 4.07143 12.2144 4.07147C12.5892 4.07139 12.8929 3.7675 12.8928 3.39277C12.8928 3.21285 12.8213 3.04033 12.6942 2.9131Z" fill="currentColor"/>
<path d="M18.3215 5.4286H12.2144C11.8396 5.4286 11.5358 5.7324 11.5358 6.10718C11.5358 6.48196 11.8396 6.78577 12.2144 6.78577H14.3112C14.6025 8.49068 15.938 9.82617 17.643 10.1175V14.3111C15.938 14.6025 14.6025 15.938 14.3112 17.6429H4.68906C4.3977 15.938 3.0622 14.6025 1.35729 14.3111V10.1175C3.0622 9.8261 4.3977 8.49064 4.68906 6.78573H6.78585C7.16062 6.78573 7.46443 6.48192 7.46443 6.10714C7.46443 5.73236 7.16062 5.42856 6.78585 5.42856H0.678706C0.303928 5.4286 0.00012207 5.7324 0.00012207 6.10714V18.3214C0.00012207 18.6962 0.303928 19 0.678706 19H18.3215C18.6963 19 19.0001 18.6962 19.0001 18.3214V6.10714C19.0001 5.7324 18.6963 5.4286 18.3215 5.4286ZM1.35725 6.78573H3.29663C3.04832 7.73527 2.3068 8.4768 1.35725 8.7251V6.78573ZM1.35725 17.6429V15.7035C2.3068 15.9518 3.04832 16.6933 3.29663 17.6429H1.35725ZM17.643 17.6429H15.7036C15.9519 16.6933 16.6934 15.9518 17.643 15.7035V17.6429ZM17.643 8.72506C16.6934 8.47676 15.9519 7.73523 15.7036 6.78569H17.643V8.72506Z" fill="currentColor"/>
</g>
<defs>
<clipPath id="clip0_1_387">
<rect width="19" height="19" fill="white"/>
</clipPath>
</defs>
</svg>
