<svg width="16" height="16" viewBox="0 0 16 16" fill="none" xmlns="http://www.w3.org/2000/svg">
<path d="M13.6569 2.34332C12.1459 0.832336 10.1368 0.000183105 8 0.000183105C5.86304 0.000183105 3.85413 0.832336 2.34314 2.34332C0.832153 3.85431 0 5.86322 0 8.00018C0 10.137 0.832153 12.1461 2.34314 13.657C3.85413 15.168 5.86304 16.0002 8 16.0002C10.1368 16.0002 12.1459 15.168 13.6569 13.657C15.1678 12.1461 16 10.137 16 8.00018C16 5.86322 15.1678 3.85431 13.6569 2.34332ZM4.01062 13.8248C4.34521 11.8983 6.01465 10.4772 8 10.4772C9.98547 10.4772 11.6548 11.8983 11.9894 13.8248C10.8535 14.6052 9.47925 15.0627 8 15.0627C6.52075 15.0627 5.14648 14.6052 4.01062 13.8248ZM5.4563 6.99603C5.4563 5.59332 6.59741 4.45233 8 4.45233C9.40259 4.45233 10.5437 5.59344 10.5437 6.99603C10.5437 8.39862 9.40259 9.53973 8 9.53973C6.59741 9.53973 5.4563 8.39862 5.4563 6.99603ZM12.8014 13.1745C12.5491 12.2776 12.048 11.4639 11.3456 10.8283C10.9147 10.4383 10.4242 10.1306 9.89685 9.91364C10.85 9.29193 11.4813 8.21637 11.4813 6.99603C11.4813 5.07648 9.91956 3.51483 8 3.51483C6.08044 3.51483 4.5188 5.07648 4.5188 6.99603C4.5188 8.21637 5.15015 9.29193 6.10315 9.91364C5.57593 10.1306 5.08533 10.4382 4.65442 10.8282C3.95215 11.4638 3.45093 12.2775 3.19861 13.1744C1.80884 11.8837 0.9375 10.0419 0.9375 8.00018C0.9375 4.1059 4.10571 0.937683 8 0.937683C11.8943 0.937683 15.0625 4.1059 15.0625 8.00018C15.0625 10.0421 14.1912 11.8839 12.8014 13.1745Z" fill="currentColor"/>
</svg>
