<svg width="16" height="17" viewBox="0 0 16 17" fill="none" xmlns="http://www.w3.org/2000/svg">
<path fill-rule="evenodd" clip-rule="evenodd" d="M4.05232 1.96245C3.7798 2.13486 3.51926 2.32465 3.27227 2.53026L3.59817 3.25624C4.11809 4.41439 3.18436 5.69956 1.92224 5.56297L1.12904 5.47714C1.01061 5.77386 0.910893 6.08003 0.831292 6.39423L1.52326 6.79092C2.62461 7.42227 2.62461 9.01082 1.52326 9.64217L0.831292 10.0389C0.910893 10.353 1.01061 10.6592 1.12904 10.956L1.92224 10.8701C3.18436 10.7335 4.11809 12.0187 3.59817 13.1769L3.27227 13.9029C3.51926 14.1084 3.7798 14.2982 4.05232 14.4706L4.64271 13.9357C5.58351 13.0834 7.09431 13.5743 7.35444 14.8168L7.51753 15.5958C7.67693 15.6061 7.83781 15.6113 8 15.6113C8.16219 15.6113 8.32307 15.6061 8.48246 15.5958L8.64556 14.8168C8.90569 13.5743 10.4165 13.0834 11.3573 13.9357L11.9477 14.4706C12.2202 14.2982 12.4807 14.1084 12.7277 13.9029L12.4018 13.1769C11.8819 12.0187 12.8156 10.7335 14.0777 10.8701L14.8709 10.956C14.9894 10.6592 15.0891 10.353 15.1687 10.0389L14.4767 9.64217C13.3754 9.01082 13.3754 7.42227 14.4767 6.79092L15.1687 6.39423C15.0891 6.08003 14.9894 5.77386 14.8709 5.47714L14.0777 5.56297C12.8156 5.69956 11.8819 4.41439 12.4018 3.25624L12.7277 2.53026C12.4807 2.32465 12.2202 2.13486 11.9477 1.96245L11.3573 2.49734C10.4165 3.3497 8.90569 2.8588 8.64556 1.61625L8.48246 0.837269C8.32307 0.827015 8.16219 0.821805 8 0.821805C7.83781 0.821805 7.67693 0.827015 7.51753 0.837269L7.35444 1.61625C7.09431 2.85881 5.58351 3.3497 4.64271 2.49734L4.05232 1.96245ZM4.58671 1.33791C4.3304 1.10569 3.95388 1.05546 3.66036 1.23838C3.32465 1.44761 3.00514 1.68037 2.70414 1.93438C2.44005 2.15723 2.37173 2.53047 2.51325 2.84571L2.8486 3.59274C3.10856 4.17181 2.6417 4.8144 2.01064 4.74611L1.19425 4.65776C0.850872 4.62061 0.517098 4.8007 0.386885 5.1206C0.239048 5.48377 0.116435 5.8599 0.0212399 6.24682C-0.0612443 6.58206 0.102927 6.92378 0.402447 7.0955L1.11463 7.50369C1.66531 7.81936 1.66531 8.61372 1.11463 8.9294L0.402447 9.33759C0.102927 9.50931 -0.0612443 9.85103 0.0212399 10.1863C0.116435 10.5732 0.239048 10.9493 0.386885 11.3125C0.517098 11.6324 0.850872 11.8125 1.19425 11.7753L2.01063 11.687C2.6417 11.6187 3.10856 12.2613 2.8486 12.8403L2.51325 13.5873C2.37173 13.9026 2.44005 14.2759 2.70414 14.4987C3.00514 14.7528 3.32465 14.9855 3.66036 15.1947C3.95388 15.3776 4.3304 15.3274 4.58671 15.0952L5.19437 14.5446C5.66477 14.1184 6.42015 14.364 6.55022 14.9852L6.71808 15.7869C6.78899 16.1255 7.06415 16.3875 7.40932 16.4121C7.60438 16.4259 7.80141 16.4329 8 16.4329C8.19859 16.4329 8.39562 16.4259 8.59067 16.4121C8.93584 16.3875 9.21101 16.1255 9.28192 15.7869L9.44978 14.9852C9.57984 14.364 10.3353 14.1184 10.8056 14.5446L11.4133 15.0952C11.6696 15.3274 12.0462 15.3776 12.3396 15.1947C12.6754 14.9855 12.9949 14.7528 13.2959 14.4987C13.5599 14.2759 13.6283 13.9026 13.4867 13.5873L13.1514 12.8403C12.8915 12.2613 13.3583 11.6187 13.9894 11.687L14.8058 11.7753C15.1491 11.8125 15.4829 11.6324 15.6131 11.3125C15.7609 10.9493 15.8835 10.5732 15.9788 10.1863C16.0612 9.85103 15.8971 9.50931 15.5975 9.33759L14.8854 8.9294C14.3347 8.61372 14.3347 7.81936 14.8854 7.50369L15.5975 7.0955C15.8971 6.92378 16.0612 6.58206 15.9788 6.24682C15.8835 5.8599 15.7609 5.48377 15.6131 5.1206C15.4829 4.8007 15.1491 4.62061 14.8058 4.65776L13.9894 4.74611C13.3583 4.8144 12.8915 4.17181 13.1514 3.59274L13.4867 2.84572C13.6283 2.53048 13.5599 2.15723 13.2959 1.93438C12.9949 1.68037 12.6754 1.44761 12.3396 1.23838C12.0462 1.05546 11.6696 1.10569 11.4133 1.33791L10.8056 1.88844C10.3353 2.31461 9.57984 2.06917 9.44978 1.44789L9.28192 0.646181C9.21101 0.307543 8.93584 0.045588 8.59067 0.0210785C8.39562 0.00721749 8.19859 0.000167847 8 0.000167847C7.80141 0.000167847 7.60438 0.00721749 7.40932 0.0210785C7.06415 0.045588 6.78899 0.307543 6.71808 0.646181L6.55022 1.44789C6.42015 2.06917 5.66477 2.31461 5.19437 1.88844L4.58671 1.33791Z" fill="currentColor"/>
<path fill-rule="evenodd" clip-rule="evenodd" d="M3.90767 7.56243C3.94499 7.329 4.18204 7.19359 4.41037 7.2548C4.63871 7.31593 4.77123 7.55068 4.7402 7.78501C4.65196 8.45152 4.76981 9.1329 5.08347 9.73525C5.4634 10.4649 6.10299 11.0256 6.87609 11.3068C7.64909 11.588 8.49949 11.5691 9.25942 11.2541C10.0193 10.939 10.6334 10.3507 10.9807 9.60493C11.3281 8.85922 11.3833 8.01047 11.1355 7.22605C10.8877 6.44165 10.3549 5.77863 9.64222 5.3678C8.92953 4.95698 8.08875 4.8282 7.28576 5.00688C6.62287 5.1544 6.02544 5.50263 5.57205 5.99905C5.41263 6.17359 5.14767 6.22321 4.95391 6.08779C4.76014 5.95238 4.71127 5.68378 4.86593 5.50501C5.44559 4.83502 6.22772 4.36533 7.09983 4.17126C8.11184 3.94607 9.1715 4.10838 10.0697 4.62616C10.9679 5.14394 11.6395 5.97957 11.9518 6.96814C12.2641 7.95681 12.1946 9.02658 11.7568 9.96637C11.3191 10.9062 10.545 11.6479 9.58725 12.0449C8.62955 12.442 7.55781 12.4656 6.58343 12.1113C5.60913 11.7569 4.80302 11.0502 4.3242 10.1306C3.91156 9.33823 3.7678 8.43731 3.90767 7.56243Z" fill="currentColor"/>
</svg>
