<svg width="17" height="17" viewBox="0 0 17 17" fill="none" xmlns="http://www.w3.org/2000/svg">
<path d="M1.44338 10.1792C1.58084 9.83926 1.96792 9.67494 2.30792 9.81247C2.64795 9.94993 2.81218 10.337 2.67471 10.677L1.89262 12.6116L4.21544 11.5877C4.38358 11.5136 4.57493 11.5124 4.74393 11.5845C5.53775 11.9232 6.38815 12.0949 7.27148 12.0949C10.8266 12.0949 13.2148 9.31137 13.2148 6.71153C13.2148 3.74311 10.5487 1.32812 7.27148 1.32812C3.9943 1.32812 1.32813 3.74311 1.32813 6.71153C1.32813 6.94313 1.34971 7.22044 1.38727 7.47232C1.44139 7.83506 1.1912 8.17297 0.828459 8.22709C0.465682 8.28134 0.127773 8.03102 0.0736856 7.66828C0.026172 7.34986 8.22548e-06 7.01006 8.22548e-06 6.71153C8.22548e-06 4.90761 0.763879 3.21499 2.151 1.94547C3.52169 0.690922 5.34019 0 7.27148 0C9.20277 0 11.0212 0.690922 12.392 1.94543C13.6315 3.07992 14.3729 4.55241 14.5167 6.14014C16.0758 7.17263 17 8.8271 17 10.6092C17 11.7224 16.6493 12.7787 15.9816 13.6877L16.9516 16.087C17.0529 16.3376 16.9922 16.6245 16.7981 16.8127C16.6717 16.9353 16.505 17 16.3358 17C16.2454 17 16.1542 16.9815 16.0681 16.9436L13.2714 15.7107C12.5679 15.9726 11.8243 16.1052 11.0567 16.1052C11.0401 16.1052 11.0238 16.1039 11.0075 16.1027C9.89724 16.0943 8.81791 15.8023 7.88311 15.2558C7.0458 14.7662 6.35703 14.0937 5.87416 13.2996C5.40271 13.2149 4.94192 13.087 4.49467 12.916L0.931952 14.4865C0.84579 14.5245 0.754648 14.543 0.664236 14.543C0.495 14.5429 0.32832 14.4783 0.20185 14.3556C0.00777808 14.1675 -0.052884 13.8806 0.0484186 13.63L1.44338 10.1792ZM11.0566 14.7754C11.0657 14.7754 11.0745 14.7764 11.0835 14.7767C11.7616 14.7733 12.4142 14.64 13.0237 14.3799C13.1927 14.3078 13.384 14.309 13.5522 14.3831L15.1073 15.0686L14.6056 13.8276C14.5129 13.5982 14.5554 13.3363 14.7159 13.148C15.3413 12.4143 15.6719 11.5364 15.6719 10.6092C15.6719 9.54801 15.2254 8.54252 14.4444 7.78011C14.2012 9.10574 13.5151 10.3738 12.48 11.37C11.192 12.6096 9.48838 13.3277 7.64877 13.4141C8.51244 14.2643 9.7484 14.7754 11.0566 14.7754Z" fill="currentColor"/>
<path d="M7.30469 7.40429C6.93794 7.40429 6.64063 7.10698 6.64063 6.74023C6.64063 6.37348 6.93794 6.07617 7.30469 6.07617C7.67144 6.07617 7.96875 6.37348 7.96875 6.74023C7.96875 7.10698 7.67144 7.40429 7.30469 7.40429Z" fill="currentColor"/>
<path d="M4.64844 7.40429C4.28169 7.40429 3.98438 7.10698 3.98438 6.74023C3.98438 6.37348 4.28169 6.07617 4.64844 6.07617C5.01519 6.07617 5.3125 6.37348 5.3125 6.74023C5.3125 7.10698 5.01519 7.40429 4.64844 7.40429Z" fill="currentColor"/>
<path d="M9.96094 7.40429C9.59419 7.40429 9.29688 7.10698 9.29688 6.74023C9.29688 6.37348 9.59419 6.07617 9.96094 6.07617C10.3277 6.07617 10.625 6.37348 10.625 6.74023C10.625 7.10698 10.3277 7.40429 9.96094 7.40429Z" fill="currentColor"/>
</svg>
